/* XPM */
static char *draw_golem_xpm[] = {
/* columns rows colors chars-per-pixel */
"50 34 39 1 ",
"  c #FFFF01",
". c #1C1A17",
"X c #1E1B1A",
"o c #211E1B",
"O c #25221E",
"+ c #28261F",
"@ c #262420",
"# c #292622",
"$ c #2D2A25",
"% c #2F2C28",
"& c #302B27",
"* c #312E2A",
"= c #35322D",
"- c #38352F",
"; c #373430",
": c #3A3631",
"> c #3D3A35",
", c #3F3D38",
"< c #403C37",
"1 c #423E39",
"2 c #45423C",
"3 c #49453F",
"4 c #454642",
"5 c #4A4641",
"6 c #4D4A44",
"7 c #514D46",
"8 c #5A4F44",
"9 c #534F48",
"0 c #55524B",
"q c #59554F",
"w c #5A5750",
"e c #5D5953",
"r c #67574A",
"t c #6B5A4C",
"y c #615D56",
"u c #6C6860",
"i c #8E715A",
"p c #947861",
"a c #B8977B",
/* pixels */
"                                                  ",
"                          3<                      ",
"                         622;                     ",
"                         626-                     ",
"              q9*     5   23&                     ",
"             ee94;    <        <                  ",
"            we009;=   660663236>+  =3=            ",
"            ewqq5*;*79q96<33721=$ : #             ",
"           26514>-%>07792163<<2$=$  ,:=           ",
"          5>>>=>---70763-23,:<&&$##:=>$           ",
"         eq5>::,==6067r2=3322<-&&== #$=$          ",
"         1qw2;55=-18pia2>7632,:2<<=  $>$ ::       ",
"         ;9y55q1=263trt15652:&<52,2>,%++#=>:      ",
"      3<1= >>90:=3093636633,=#:2-:22>O  O+#$      ",
"      35  q ::,:*>0099992233;$&=$=,%O.::          ",
"        qey$22,>-=>37632,332=$$&%$$=<$$>&         ",
"       9655&>22-:=#  =;=$***$$@O $===:O $         ",
"      eq003=-2->=     $*$*$$$&;;  %  $  =@        ",
"      67ew==2:-=    23>%*%$*;=:*    >===,%        ",
"      29q6==>=      32>=$  ;;*$$    3>=@##O       ",
"      wq<:;=>=     ,=#$$    ;;#$O  >2,+oOoO@      ",
"     765>:=*       :=:=      *$#%  <2;+Ooooo$     ",
"    9q65<4>*       362#      13<>%  2$@@$$o$:     ",
"    4551,::*      592%$$     ;*&@+= :;$=&#O@=     ",
"    772<-<<&     05::;&$     3:&+@=  <&#OO$@      ",
"   eye2*=00>    692-22=$    592:O+   =#-%%===     ",
"   qye6*<qw:   55:#=2,=$    2<<>#$   >$,:=,=$     ",
"  0q96<*,62                      :  =>&$=$=$O     ",
"  5251;&=$66                        $$$#$O..X     ",
"  67e5 7  e6                        ,%   =%;,%O   ",
" e4wu5ey1 q2                       3>#  ;<:=:$$#  ",
" 5<15<w6$ 9>                      <3:+   $$ %=$@  ",
"                                   =&      :$@    ",
"                                                  "
};
