/* XPM */
static char *draw_orc_xpm[] = {
/* columns rows colors chars-per-pixel */
"50 50 232 2 ",
"   c #FFFF01",
".  c #000001",
"X  c #020C01",
"o  c #00000B",
"O  c #020A0C",
"+  c #140003",
"@  c #12150E",
"#  c #000113",
"$  c #040C15",
"%  c #00061C",
"&  c #0C1418",
"*  c #1B1C14",
"=  c #11161A",
"-  c #151C1B",
";  c #191E1C",
":  c #131A15",
">  c #130F16",
",  c #241B11",
"<  c #2D0F06",
"1  c #1D220C",
"2  c #1D2313",
"3  c #1C221D",
"4  c #272706",
"5  c #22241C",
"6  c #252A1C",
"7  c #2A2C1D",
"8  c #252813",
"9  c #352917",
"0  c #2D321D",
"q  c #3A3C1E",
"w  c #35351B",
"e  c #342E09",
"r  c #091825",
"t  c #141C23",
"y  c #151B28",
"u  c #130C29",
"i  c #261D21",
"p  c #1D2323",
"a  c #1B252B",
"s  c #1A262A",
"d  c #1F2A31",
"f  c #222623",
"g  c #242924",
"h  c #2A2D22",
"j  c #252B2B",
"k  c #292D2A",
"l  c #24272A",
"z  c #2D3223",
"x  c #2D312B",
"c  c #27312C",
"v  c #333422",
"b  c #353A26",
"n  c #3B3B24",
"m  c #32362C",
"M  c #353B2C",
"N  c #3A3D2A",
"B  c #3B3721",
"V  c #232B32",
"C  c #2A2F34",
"Z  c #2D3332",
"A  c #2B353B",
"S  c #263038",
"D  c #313632",
"F  c #353A34",
"G  c #343B3C",
"H  c #393D3A",
"J  c #383A34",
"K  c #372923",
"L  c #403B1F",
"P  c #4F3703",
"I  c #423B22",
"U  c #463924",
"Y  c #3C4015",
"T  c #3D422A",
"R  c #3E4321",
"E  c #3D4233",
"W  c #3D433E",
"Q  c #44441B",
"!  c #4C4D1E",
"~  c #474B18",
"^  c #57520F",
"/  c #63581B",
"(  c #7E7E12",
")  c #434423",
"_  c #464924",
"`  c #4B4D24",
"'  c #44452C",
"]  c #4C4B2C",
"[  c #4E4629",
"{  c #564C27",
"}  c #4D5027",
"|  c #535323",
" . c #52532D",
".. c #5A5D2B",
"X. c #5B5725",
"o. c #4B4D35",
"O. c #454939",
"+. c #4D5238",
"@. c #555A3B",
"#. c #575837",
"$. c #514E38",
"%. c #674329",
"&. c #63572A",
"*. c #665C38",
"=. c #7F5C29",
"-. c #5E612B",
";. c #5E6137",
":. c #62642B",
">. c #686828",
",. c #7A7927",
"<. c #626534",
"1. c #6C6B33",
"2. c #63633B",
"3. c #6A6739",
"4. c #766B36",
"5. c #747533",
"6. c #7B7A34",
"7. c #7D7C3D",
"8. c #787439",
"9. c #766D2B",
"0. c #343D42",
"q. c #3C4344",
"w. c #3B444A",
"e. c #374147",
"r. c #404743",
"t. c #464C44",
"y. c #464C48",
"u. c #4B524C",
"i. c #4C5244",
"p. c #5A5C44",
"a. c #535747",
"s. c #444D51",
"d. c #494E51",
"f. c #4D5454",
"g. c #4E565A",
"h. c #545B55",
"j. c #535A5B",
"k. c #595F5B",
"l. c #535950",
"z. c #635E46",
"x. c #5D6244",
"c. c #5C6049",
"v. c #5D6357",
"b. c #616545",
"n. c #6B6A43",
"m. c #666749",
"M. c #6C7143",
"N. c #6C714B",
"B. c #747443",
"V. c #767945",
"C. c #777749",
"Z. c #656858",
"A. c #6D7154",
"S. c #737557",
"D. c #756C48",
"F. c #565D62",
"G. c #5D6363",
"H. c #5B6469",
"J. c #636A6B",
"K. c #656A67",
"L. c #6C736C",
"P. c #6A7064",
"I. c #777966",
"U. c #656D73",
"Y. c #6C7373",
"T. c #6C757B",
"R. c #747A7A",
"E. c #867D37",
"W. c #846430",
"Q. c #857A4A",
"!. c #827E5E",
"~. c #7E8253",
"^. c #7D8069",
"/. c #7E837B",
"(. c #88882C",
"). c #878639",
"_. c #949333",
"`. c #999938",
"'. c #96962E",
"]. c #A9A83A",
"[. c #898848",
"{. c #97964A",
"}. c #878657",
"|. c #948957",
" X c #9C9A5C",
".X c #989653",
"XX c #938E4D",
"oX c #A19F48",
"OX c #AE9E5E",
"+X c #A8A648",
"@X c #B7B44B",
"#X c #A4A35D",
"$X c #A8A756",
"%X c #B1AF59",
"&X c #BAB757",
"*X c #828365",
"=X c #898D69",
"-X c #9D9A69",
";X c #898D7A",
":X c #858875",
">X c #8E9178",
",X c #969576",
"<X c #A69F68",
"1X c #A7A66A",
"2X c #B4B36A",
"3X c #A7A676",
"4X c #BCB979",
"5X c #B1AB6D",
"6X c #C3BF53",
"7X c #C0BF78",
"8X c #C0BE61",
"9X c #C6C25B",
"0X c #C7C466",
"qX c #C6C479",
"wX c #D6D377",
"eX c #757D81",
"rX c #7E8581",
"tX c #848A83",
"yX c #969987",
"uX c #8D9493",
"iX c #BBB782",
"pX c #A4A795",
"aX c #B4B08C",
"sX c #C2BC87",
"dX c #C8C685",
"fX c #D2CE93",
"gX c #E5E199",
"hX c #CAC6A4",
"jX c #D5D2AE",
"kX c #E1DFA3",
"lX c #E6E3A8",
"zX c #F0ECB6",
/* pixels */
"                                                                                                    ",
"                                                                                                    ",
"                                                                                                    ",
"                                      G.eXrXs.v.                                                    ",
"                                  j.j.f.j.H.w.w.                                                    ",
"                                g.j.s.s.w.s.F.H.U.tX                                                ",
"                              u.u.A S S A H.eXT.eXuXU.y.                                            ",
"                            h.r.s d A e.S w.e.e.w.F.Y.g.U.R.                                        ",
"                          u.Z.s A e.A A G.Y.H.g.F.0.L.K.v.T.U.                                      ",
"                        H P.u.w.e.d s.U.H.S e.W q.r.a.+.X y.K.H.                                    ",
"                        h.L.f.G d G.U.i.} <.#.3 % E X :. Xm.y.L.K.                                  ",
"                        P.k.r.f.T.G.h -.).+X&X+XE.p :.gXzXkX1XO.H.F.                A.              ",
"                          K.J.Y.f.. N >.'.@X9X9X9X+X8XgXzXlXlX Xb g.g.            ^.x.              ",
"                          J.J.Z X p b 1.'.+X@X@X@X9X0X0XlXlXkX4XC.M r.q.        -XB.c               ",
"                        k.g.t 3 c p 2 ..)._.].].@X@X0XwXfXfXdX5X5Xm.& Z       3X8.O.                ",
"      X.XX4X          F.y.. D g 3 h z N 7.XX).$X+X&X0XwX0X4X2X2X2X1.l ; C 2X5Xm.q h.                ",
"        q 6.XX3XdX  h.0.. k x g - 2 b ) | 7.[.7._.+X%X%X1X$X+X`.1X,X` % A.%X8.J N m.                ",
"        p.X 4 / XX Xy., 7 k x ; o #..X[.&.>.,.].XX5.oX X[.7X2X.XjXaX_ p C.1.K 9 o.@.                ",
"          1.9 > . U h ! |.S.; f D =XsX7X`.'.(.&XwX(.>.( 2XlXdX#XM.q o 5 4.U y O.@.                  ",
"          V.| 8 h l , &.V.n.$ ; x O.@.M.6.(.`.].&X&X>.).#X4XXXo.3 R 1.D D 7 B J m.                  ",
"             .L w b R , 9 n p & x T - h o.o.:.9.,.6.-.~ 5.;.5 + 2 ` 5.O.j z ' x.c.                  ",
"            i.w < B.XX8 o g C 3 O.i.1 2 e n ' Q w 4 1._ 8 O W.9.. 1.#X2.y T x.S.S.                  ",
"          g.+.V.3.:.<.. @ g Z h @ 1 e 1 W.%.. , . _.wX0X:.8 { %.] $X0X8.u o.;.c.                    ",
"        tX  2 -..X| . v . j Z 3 -.4X#X+ *.X.Q Q >._.+XoX(.~ 1.XX{..X[.O.C o.@.                      ",
"              % ^ =XA.e 0 F j s -..X XXX).E.(.4.>.+XXX-X1X.XQ.{.oX` 0 h G c...k.                    ",
"              W 4 tXZ.4 z Z p Z W 1 -.1...E.X.Q.OX+X0XqX#XE.*.# 6.7.g j d @.p.K.R.                  ",
"            D p ; k tXO.2 c p p W q.w Q 6.| . < &.%.^ ^ P . &._.6 -.M D Z g v.R.                    ",
"          O.m p . L.K.. x 3 x f & Z w 5...X XXXX. 9 %.%.9 ! oX@X6.) n k D = g.L.                    ",
"          l.H H . h.l N 3 k h - 3 c } ;.8 8.$X+X).e U L , E.'.'._.5.) s . g s v.                    ",
"          f.f.y.. r.k h.k g p t 3 T e 0 ) D.8.E.).W.< 9 { E.).).5.6.` H :Xo j c u.                  ",
"        k.K.K.o : g m t.M - p - - x.>XX  .m.3.8.8.E.=.X.&.E.E.).8.n.4 !.hX. g G s r.                ",
"        f.G.- : p * 5 J N 5 g p X S.jX_ [ [ [ *.4.XXXX^ XX7X5X<XB._ K jXaXl g E x s y.              ",
"        G.Z j p 3 2 0 2 z p g p 2 ;.hXyX+ n.2.Q.5X7XsXiXiXsXaX<Xm.N hXsXQ.y J a.Z a E K.P.          ",
"      Y.j.W x @ 3 z _ } T - g & = ` |.hXm.) Q. X}.$.U m.t.. . * 9 <XsX4.#.$ l i.+.r E p.uXP.        ",
"    rXrXw.M h 6 - g ` >.<.o.3 : $ T %.aXfX*.U n K z.m.U @.!.!.n.I *.%.&.] ; q./.m.s E x.A.tXh.      ",
"    tXY.f.0 0 w 0 p Y -.:.3.s $ & 8 [ 3.!.D.*.Q.|.!.S.A.z.$.z.2.<.2.[ ] ..3 F f.n.o.M x.b.P.K.      ",
"    Y.R.u.8 6 w q b R | 1.;.T 3 $ h B 9 e &.B.[ > . o o $ # . @ b  .#.o.9 #.M # M.;.+.N.b.;.        ",
"      k.    0 1 q q Q } | -.o.T $ 5 h B $.] : 5 5 9 I h v [ I z 7 # $ o M [.+.+.[.<.#.N.~.c.        ",
"              v.) ;.A.` ~ } R T 6 & 5 K g $ g b O.b.z.f v <.1.5._ 5 b 3 T [.V.V.~.1...=X>X          ",
"              tXv.~.^...` ~ ` _ ' ; $ l 7 v b E p.m.T D M f ] -.b f h 7 T V.~.8.V.M.b.>X            ",
"                I.I.pX}.<.! ` ` } b p t - z T T h ; x H E 7 g t - p z c T ;.1.V.V.A.                ",
"                >X:XpXyX^.b.! ] ] T g 3 & p p h l ; F F D z k s t Z ;.T ;.N.N.V.~.                  ",
"                  yXyXpX>X>Xx.` ' b n w g l t t y 3 x Z j s S d % +.b.@.N.V.}.=X                    ",
"                    uXpXpXpXA.Y ' b n n I h p l t t j d j r y a r a.c.x.x.~.=X                      ",
"                          yX;X} p.T 1 2 w q z j t t V r d d a 0.V c.m.x.x.                          ",
"                              ;X;Xb.@.T f v b 7 a x d y s S 0.v.t.N.@.x.                            ",
"                                  yX>X:XI.Z.I.i.g E O.G y 0.v.*Xl.c.                                ",
"                                      ;X:X:XI.S.x.a.c.u.w.L.I.S.                                    ",
"                                                        H.                                          ",
"                                                                                                    "
};
