/* XPM */
static char *draw_skeleton_xpm[] = {
/* columns rows colors chars-per-pixel */
"50 50 94 2 ",
"   c #FFFF01",
".  c #000000",
"X  c #0A0000",
"o  c #120000",
"O  c #1D0000",
"+  c #220300",
"@  c #240B00",
"#  c #271201",
"$  c #2A1501",
"%  c #2D1904",
"&  c #2D1C0B",
"*  c #2F1F10",
"=  c #352005",
"-  c #33210D",
";  c #2F2012",
":  c #322314",
">  c #392712",
",  c #342719",
"<  c #37291B",
"1  c #3B2C1D",
"2  c #362C22",
"3  c #3C2F20",
"4  c #3D3124",
"5  c #3C342B",
"6  c #3B3730",
"7  c #3D3830",
"8  c #483014",
"9  c #413526",
"0  c #4A3A26",
"q  c #433729",
"w  c #453A2B",
"e  c #493D2D",
"r  c #413A33",
"t  c #423F39",
"y  c #4E4334",
"u  c #514536",
"i  c #524837",
"p  c #554A3A",
"a  c #594E3D",
"s  c #474742",
"d  c #4A4741",
"f  c #4A4944",
"g  c #4E4D48",
"h  c #574F41",
"j  c #5D5342",
"k  c #50504C",
"l  c #615645",
"z  c #625847",
"x  c #665C4B",
"c  c #685E4B",
"v  c #6A614E",
"b  c #6C6451",
"n  c #716754",
"m  c #726956",
"M  c #766D59",
"N  c #796E59",
"B  c #7B715D",
"V  c #7D7561",
"C  c #7F7865",
"Z  c #807762",
"A  c #847B65",
"S  c #857E69",
"D  c #8C836C",
"F  c #90866F",
"G  c #938B73",
"H  c #988F76",
"J  c #958E78",
"K  c #988F78",
"L  c #9C947B",
"P  c #A1977D",
"I  c #A2997F",
"U  c #A59B82",
"Y  c #A99F85",
"T  c #AAA186",
"R  c #ADA489",
"E  c #B0A78B",
"W  c #B4AA8E",
"Q  c #B6AD91",
"!  c #B8AF92",
"~  c #BBB295",
"^  c #BEB599",
"/  c #C0B799",
"(  c #C4BA9D",
")  c #C7BEA0",
"_  c #C8BEA0",
"`  c #CDC3A4",
"'  c #D0C6A7",
"]  c #D1C7A8",
"[  c #D4CBAB",
"{  c #D8CFAE",
"}  c #DAD0AF",
"|  c #D7D0B0",
" . c #DCD2B2",
".. c #E0D7B6",
/* pixels */
"                                              . . . . . .                                           ",
"                                      . @ c G I Y Y I I L v . . ,                                   ",
"                                    . l A (  .{ {  .{ {  .{ ( D + & :                               ",
"                                  . M ] _ P ' ' ' ] [ ' ' U U D b y % :                             ",
"                                  + ^ [ ' L ' [ [ ] ] [ ' Y / Q ( D < *                             ",
"                                  y ` ] ( A ( [ [ [ ] [ [ { [ { { ^ v # ,                           ",
"                                  M [ [ ` m Q [ ] [ { [ [ [ [ { [ | L # :                           ",
"                                  B  .[ { Y ( [ ' ' ` {  . ...{ { { Q y #                           ",
"                                . Q  .{ |  .{ { ] ' | ` K b J [ ] [ ^ h +                           ",
"                                a ( ]  . .| { [  . .~ j n U T ` [ ` V r &                           ",
"                              . j D S Y U J ] L / J 4 J  . .| [ [ ) m y &                           ",
"                              @ 1 Q W U R ( } W M C Q ` R j C [ [ ] J w %                           ",
"                                $ > w S ^ [ ] [ { ` G e . . . ^ { ^ b &                             ",
"                                . A e . . G { ] ` x . O 4 < & ^ | U 3 ;                             ",
"                                . H x * 4 . ^  .Q . w , < o a { { S .                               ",
"                  * *           . n < # . n { { ` y . 4 q . j ( { L @                               ",
"                  * ;             v j o M ` ` ` } Q 1 . . $ I G ' ~ q                               ",
"                    : &           F  .`  .Q . V '  .` T E `  . ...T @                               ",
"                    : *           a R W ! ` ! (  .( / ` ` ^ ! / R y O                               ",
"                    : 2 &         . . . . T W Q ( j 4 p . . . . .                                   ",
"                    & 5 2               1 . . . , O y y @                                           ",
"                    % 7 y &                     . : 4 h ;   @ < 1                                   ",
"                    & 2 f q $                 i H % . z 9 o 4 j e .                                 ",
"                    & < s 5 $               . x V y i Z x z j w S B .                               ",
"                      & y s ,               l R V j # : e @ K ! M _ 9                               ",
"                      % 5 k r #             R R R Y A Z # p L Z . T I .                             ",
"                        ; s s $           a ! z M U A i a 3 B U , & V z                             ",
"                        $ 6 g <         . m j . J ^ S x D j P b     y B                             ",
"                          , f 7 $     . c e .     X o a j @         M x                             ",
"                          & 7 y = . M W j +         . D F .       . ~ b                             ",
"                          ; : > % J ) H X       a j . A a 4 b     N T X                             ",
"                        ; - 0 - 4 G y           v W b x m ( P .   H m                               ",
"                        < X S m + .           : a b v o n C i   4 v :                               ",
"                            j L 8 >             G / < e . z E   y T w                               ",
"                              c 0 %             b R .     q U q i R i :                             ",
"                                #               B U .     . G j u D S z                             ",
"                                                A U .       S c + a i                               ",
"                                                G U .       D ^ $                                   ",
"                                              + ( L .       v ~ b                                   ",
"                                              i Z l <       . v y                                   ",
"                                              x N .         o n p                                   ",
"                                              w i           . A S .                                 ",
"                                              a p &         . D U .                                 ",
"                                            1 D c &         . S ^ .                                 ",
"                                            j R j %         , V / 9                                 ",
"                                            M ~ q O         q n / z                                 ",
"                                  * q : O . F ( O           1 i ~ x .                               ",
"                                  # S x U R N N #           : 3 c F Y l N .                         ",
"                                    c Z m b +                   . v L D x                           ",
"                                      a                               p                             "
};
