/* XPM */
static char *draw_archer_tower[] = {
/* columns rows colors chars-per-pixel */
"50 50 169 2 ",
"   c #FFFF01",
".  c #AB3605",
"X  c #AE3905",
"o  c #AE540C",
"O  c #B05C00",
"+  c #B0570C",
"@  c #B0610E",
"#  c #B2600F",
"$  c #B76D0F",
"%  c #BB7C00",
"&  c #B7740E",
"*  c #B06F13",
"=  c #B36E12",
"-  c #B17013",
";  c #B37313",
":  c #B47313",
">  c #B57313",
",  c #B57413",
"<  c #B57513",
"1  c #B37314",
"2  c #B47214",
"3  c #B47314",
"4  c #B57314",
"5  c #B37414",
"6  c #B47414",
"7  c #B57414",
"8  c #B57514",
"9  c #B57515",
"0  c #B67514",
"q  c #B77614",
"w  c #B47416",
"e  c #B97712",
"r  c #B87713",
"t  c #B87715",
"y  c #BB7714",
"u  c #BA7912",
"i  c #BB7D13",
"p  c #BD7C11",
"a  c #BE7D10",
"s  c #BF7E11",
"d  c #BC7C12",
"f  c #BD7D12",
"g  c #BF7D12",
"h  c #BB7814",
"j  c #BC7814",
"k  c #BD7914",
"l  c #BC7D17",
"z  c #B7791B",
"x  c #BC7F1A",
"c  c #A96F20",
"v  c #C27E13",
"b  c #C67F15",
"n  c #C5870E",
"m  c #C98A0F",
"M  c #CB8A0F",
"N  c #CD8C0F",
"B  c #CC8E0F",
"V  c #D08F0F",
"C  c #D3920E",
"Z  c #D2920F",
"A  c #D4930C",
"S  c #D4920F",
"D  c #D6960D",
"F  c #D5950F",
"G  c #D7970E",
"H  c #DA9A09",
"J  c #D8980C",
"K  c #D9990C",
"L  c #DA9A0D",
"P  c #DE9B0E",
"I  c #DF9B0F",
"U  c #DB9C0C",
"Y  c #C08011",
"T  c #C28210",
"R  c #C28310",
"E  c #C28211",
"W  c #C38211",
"Q  c #C48310",
"!  c #C68312",
"~  c #C58510",
"^  c #C68511",
"/  c #C58611",
"(  c #CC8513",
")  c #C98115",
"_  c #CC8315",
"`  c #CD8316",
"'  c #C78810",
"]  c #C98810",
"[  c #C88910",
"{  c #CA8811",
"}  c #CB8B10",
"|  c #CD8A11",
" . c #CE8813",
".. c #CE8913",
"X. c #CE8A12",
"o. c #CC8C10",
"O. c #C5871B",
"+. c #C5881B",
"@. c #CA8D1E",
"#. c #D08C11",
"$. c #D28E11",
"%. c #D38D1A",
"&. c #CD921F",
"*. c #D09110",
"=. c #D29010",
"-. c #D39010",
";. c #D39110",
":. c #D49011",
">. c #D49210",
",. c #D69310",
"<. c #D39410",
"1. c #D79510",
"2. c #D89211",
"3. c #DA9610",
"4. c #DB9810",
"5. c #D4921D",
"6. c #E29E08",
"7. c #E29F0C",
"8. c #E29E0F",
"9. c #E09A11",
"0. c #DEA00E",
"q. c #E5A00D",
"w. c #E6A30D",
"e. c #E8A60D",
"r. c #E9A50E",
"t. c #E0A110",
"y. c #E5A012",
"u. c #E6A410",
"i. c #E5A819",
"p. c #E5AA1B",
"a. c #E6AA1B",
"s. c #E6A91D",
"d. c #E9A818",
"f. c #EFB019",
"g. c #F8B61B",
"h. c #CD9120",
"j. c #DA9920",
"k. c #F3B620",
"l. c #F7B72B",
"z. c #C59E75",
"x. c #BEB0A8",
"c. c #B3B1B1",
"v. c #B6BABC",
"b. c #E5E5E5",
"n. c #C2A690",
"m. c #E5E5E5",
"M. c #E5E5E5",
"N. c #E5E5E5",
"B. c #E5E5E5",
"V. c #DDDDDD",
"C. c #E5E5E5",
"Z. c #E5E5E5",
"A. c #E2E2E2",
"S. c #E5E5E5",
"D. c #E1E3E4",
"F. c #E4E4E4",
"G. c #E6E5E5",
"H. c #E6E6E6",
"J. c #E7E7E7",
"K. c #E7E8E9",
"L. c #E5E5E5",
"P. c #EAEAEA",
"I. c #ECECEC",
"U. c #E5E5E5",
"Y. c #EEEEEE",
"T. c #EFEFEF",
"R. c #E5E5E5",
"E. c #F3F3F3",
"W. c #F4F4F4",
/* pixels */
"                                                                                                    ",
"                                                                                                    ",
"                                                                                        l.h.        ",
"                                                                                      h.j.@.        ",
"                                                                                      O.5.+.        ",
"                                                                                    x %.x           ",
"                                                i.s.i.d.y.9.2.X.E p p i $ X + # 6 h h               ",
"        b.                                  s.k.f.u.q.C } ' E                                       ",
"        B.B.c.v.                          t.g.0.q.A *.                                              ",
"          G.P.x.                        U e.H 7.Z                                                   ",
"            D.n.O                     L q.L P                                                       ",
"                  6 6               G e.J I                                                         ",
"                      6 2           9.G I B                                                         ",
"                          2       C G G o.                                                          ",
"                            6 - / 4.o.o.                                                            ",
"                                / n 3.                                                              ",
"                                >.B X.                                                              ",
"                              o.>.$.  - >                                                           ",
"                              >.*.}       > ,                                                       ",
"                            M 2.$.            2                                                     ",
"                            } *.M               , 6                                                 ",
"                            $.$./                   , ,                                             ",
"                          / $.}                         6                                           ",
"                          Q #.Q                           - >                                       ",
"                          E X.p                               > 6                                   ",
"                          E ..p                                   z                                 ",
"                          p X.u                                     % z.  B.B.                      ",
"                          p ( r                                         W.P.I.G.B.                  ",
"                            v j                                         B.B.m.B.R.A.                ",
"                            u )                                           R.A.B.B.G.P.P.            ",
"                              ` 2                                           M.I.A.A.G.I.R.J.        ",
"                              6 y                                             Z.G.E.P.I.B.          ",
"                                b                                                 I.T.P.            ",
"                                6 ,                                                   M.            ",
"                                  ,                                                                 ",
"                                  - ,                                                               ",
"                                    ,                                                               ",
"                                    ,                                                               ",
"                                    #                                                               ",
"                                      .                                                             ",
"                                      o                                                             ",
"                                      =                                                             ",
"                                      5                                                             ",
"                                      &                                                             ",
"                                    , c                                                             ",
"                            2 ` - k 6                                                               ",
"                              k k >                                                                 ",
"                                                                                                    ",
"                                                                                                    ",
"                                                                                                    "
};
