/* XPM */
static char *draw_arrow_xpm[] = {
/* columns rows colors chars-per-pixel */
"25 25 43 1 ",
"  c #FFFF01",
". c #6B1515",
"X c #6C1A16",
"o c #6E1A16",
"O c #4A2A0E",
"+ c #4B2C0E",
"@ c #4B2D0E",
"# c #4A2C0F",
"$ c #4B2D0F",
"% c #4C2D0F",
"& c #4D2E0F",
"* c #4E2E0F",
"= c #4F300F",
"- c #51300C",
"; c #50300F",
": c #4F3010",
"> c #503010",
", c #573511",
"< c #583511",
"1 c #5A3511",
"2 c #5B3511",
"3 c #5A3611",
"4 c #593512",
"5 c #5A3612",
"6 c #5B3712",
"7 c #5C3811",
"8 c #702616",
"9 c #792318",
"0 c #7C2219",
"q c #7F2919",
"w c #633114",
"e c #6A3115",
"r c #6F3316",
"t c #444041",
"y c #534743",
"u c #534C4C",
"i c #544D4D",
"p c #5C5454",
"a c #5C5556",
"s c #5F5757",
"d c #635B5B",
"f c #675E5E",
"g c #6A6262",
/* pixels */
"                       o ",
"                      o9 ",
"                     .qe ",
"                     8r9 ",
"                    Ow0  ",
"                   @,    ",
"                  O5     ",
"                 @5      ",
"                @5       ",
"               %5        ",
"              %5         ",
"             %5          ",
"            %7           ",
"           %7            ",
"          ;5             ",
"         >7              ",
"        :                ",
"       ;                 ",
"      ;                  ",
"     ;                   ",
"   ty                    ",
"  ids                    ",
" igd                     ",
" sd                      ",
"                         "
};
