/* XPM */
static char *draw_canon_ball_xpm[] = {
/* columns rows colors chars-per-pixel */
"25 25 138 2 ",
"   c #FFFF01",
".  c #2D201A",
"X  c #2E201A",
"o  c #2B211C",
"O  c #2D231C",
"+  c #2E221D",
"@  c #2E251F",
"#  c #30231C",
"$  c #32231C",
"%  c #31241D",
"&  c #30251F",
"*  c #32241E",
"=  c #33241E",
"-  c #34271F",
";  c #312621",
":  c #322822",
">  c #372820",
",  c #362A23",
"<  c #322824",
"1  c #332926",
"2  c #332A27",
"3  c #362924",
"4  c #352B25",
"5  c #372A24",
"6  c #382821",
"7  c #392D26",
"8  c #3B2E26",
"9  c #3B2E27",
"0  c #3D2E26",
"q  c #3D2F26",
"w  c #3E2F26",
"e  c #312B28",
"r  c #362D28",
"t  c #362C29",
"y  c #3B2D28",
"u  c #3A2F2B",
"i  c #3E2F28",
"p  c #3A312B",
"a  c #3C302A",
"s  c #3E322A",
"d  c #3F332B",
"f  c #39322E",
"g  c #3D322C",
"h  c #3D332C",
"j  c #3C332D",
"k  c #3E3530",
"l  c #3F3732",
"z  c #41302A",
"x  c #43322A",
"c  c #41332C",
"v  c #41342E",
"b  c #41342F",
"n  c #45362D",
"m  c #4D3228",
"M  c #4A352B",
"N  c #49372F",
"B  c #4E372F",
"V  c #553B2E",
"C  c #413731",
"Z  c #443630",
"A  c #473831",
"S  c #463832",
"D  c #453A34",
"F  c #443B36",
"G  c #463B36",
"H  c #4E3A30",
"J  c #4C3D35",
"K  c #463E38",
"L  c #463E39",
"P  c #473F39",
"I  c #483D38",
"U  c #4A3D39",
"Y  c #493F3B",
"T  c #4C3E39",
"R  c #4E3F3A",
"E  c #47413D",
"W  c #4A403A",
"Q  c #4E4039",
"!  c #4E403A",
"~  c #4B413C",
"^  c #4A413D",
"/  c #4B423D",
"(  c #4C413C",
")  c #4D433D",
"_  c #4E433D",
"`  c #4C443D",
"'  c #4D443E",
"]  c #4F453E",
"[  c #52443B",
"{  c #52443D",
"}  c #51443E",
"|  c #51453F",
" . c #55463F",
".. c #56473E",
"X. c #5E453A",
"o. c #5A463C",
"O. c #5D473F",
"+. c #51483F",
"@. c #5D493F",
"#. c #4D4540",
"$. c #4F4540",
"%. c #514742",
"&. c #544640",
"*. c #564940",
"=. c #564841",
"-. c #554942",
";. c #554843",
":. c #564842",
">. c #564A43",
",. c #534A44",
"<. c #544945",
"1. c #554A44",
"2. c #554C46",
"3. c #5B4940",
"4. c #5B4941",
"5. c #5E4A40",
"6. c #5C4942",
"7. c #5E4B44",
"8. c #5B4D44",
"9. c #5B4E47",
"0. c #5F4D45",
"q. c #554E49",
"w. c #584E48",
"e. c #5C4E48",
"r. c #5C4F49",
"t. c #5F4F48",
"y. c #5A514C",
"u. c #5F534C",
"i. c #5F554E",
"p. c #604C42",
"a. c #604C43",
"s. c #675046",
"d. c #67574E",
"f. c #685049",
"g. c #6A5148",
"h. c #675952",
"j. c #716259",
"k. c #756259",
/* pixels */
"                                                  ",
"                                                  ",
"                                                  ",
"                                                  ",
"                                                  ",
"                                                  ",
"                  f.@.G ! ! Y                     ",
"                { a.4.{ .. .=.w.<.                ",
"              =.w.&.4.g.s...+.2.#.%.              ",
"              y.h.d.=.a.@.D W q.E L ^             ",
"            %.k.j.s.2.[ c n s E Y S Y             ",
"            ( d.i.y.' s , q 7 4 3 z n             ",
"            ( ( &.' z i 4 @ @ X ; $ u             ",
"            R &.2.' p z , @ o % X X ;             ",
"            Y 0.y.=.Z N w - - @ $ $ 2             ",
"              4.t.' C c w w V m 6 3 e             ",
"              Y =.0.3.X.H x B M 7 2               ",
"                F {  .o.J h p h r                 ",
"                    l f l b r u                   ",
"                                                  ",
"                                                  ",
"                                                  ",
"                                                  ",
"                                                  ",
"                                                  "
};
