/* XPM */
static char *draw_canon_tower[] = {
/* columns rows colors chars-per-pixel */
"50 50 165 2 ",
"   c #FFFF01",
".  c #000026",
"X  c #11092A",
"o  c #33232E",
"O  c #2B2734",
"+  c #2F2834",
"@  c #302734",
"#  c #342B36",
"$  c #3A2D36",
"%  c #342E3A",
"&  c #3C2E38",
"*  c #3D3037",
"=  c #36313D",
"-  c #3C323C",
";  c #49202D",
":  c #442A34",
">  c #4E2D35",
",  c #412F39",
"<  c #502F37",
"1  c #443137",
"2  c #4C3137",
"3  c #44323B",
"4  c #4C353C",
"5  c #4F393F",
"6  c #583036",
"7  c #50343F",
"8  c #5A3438",
"9  c #53393E",
"0  c #663538",
"q  c #3C3541",
"w  c #3F3844",
"e  c #393D48",
"r  c #433540",
"t  c #443C45",
"y  c #483D45",
"u  c #463F4C",
"i  c #483F48",
"p  c #543B41",
"a  c #5B3E43",
"s  c #4B4149",
"d  c #574043",
"f  c #5D4144",
"g  c #52464C",
"h  c #5A4549",
"j  c #54484F",
"k  c #4F4852",
"l  c #544B51",
"z  c #5A4E53",
"x  c #5C5055",
"c  c #634345",
"v  c #6A4243",
"b  c #674A47",
"n  c #6B4B47",
"m  c #654548",
"M  c #69464A",
"N  c #664949",
"B  c #6C4A4B",
"V  c #714F47",
"C  c #724D4B",
"Z  c #74524A",
"A  c #7A564E",
"S  c #79594F",
"D  c #714C50",
"F  c #635355",
"G  c #685757",
"H  c #625559",
"J  c #63585C",
"K  c #6A5C5C",
"L  c #755252",
"P  c #795152",
"I  c #755952",
"U  c #7D5B52",
"Y  c #745B5A",
"T  c #70605F",
"R  c #7E625B",
"E  c #6D6366",
"W  c #6F6368",
"Q  c #736463",
"!  c #7C6C6B",
"~  c #825653",
"^  c #825C53",
"/  c #866256",
"(  c #83645A",
")  c #8D6658",
"_  c #8D695B",
"`  c #926E5D",
"'  c #98725F",
"]  c #A1755B",
"[  c #A3785F",
"{  c #816760",
"}  c #8D6D61",
"|  c #816D6B",
" . c #8A6F68",
".. c #81716E",
"X. c #8D7369",
"o. c #977261",
"O. c #9C7663",
"+. c #9E7964",
"@. c #93776C",
"#. c #9F7F6E",
"$. c #807171",
"%. c #8E7874",
"&. c #8B7D7B",
"*. c #947C72",
"=. c #A27B66",
"-. c #A97E65",
";. c #A47E69",
":. c #A97F69",
">. c #9A8075",
",. c #93827D",
"<. c #99837C",
"1. c #9D887F",
"2. c #A6816B",
"3. c #AB836C",
"4. c #B1876D",
"5. c #B1886E",
"6. c #AD8671",
"7. c #AD8873",
"8. c #A08679",
"9. c #AC8C7B",
"0. c #B38B72",
"q. c #B48F78",
"w. c #BB9076",
"e. c #BA937A",
"r. c #928583",
"t. c #9B8680",
"y. c #9D8882",
"u. c #9A8D8A",
"i. c #9F918D",
"p. c #A08F88",
"a. c #A2928C",
"s. c #AC968B",
"d. c #BE9981",
"f. c #B29A8D",
"g. c #A79690",
"h. c #A79995",
"j. c #AD9C94",
"k. c #AD9E98",
"l. c #B19D96",
"z. c #B4A199",
"x. c #BBA79E",
"c. c #BDABA2",
"v. c #C19B84",
"b. c #CCA68D",
"n. c #C4A592",
"m. c #D3AD94",
"M. c #D9B397",
"N. c #DAB59A",
"B. c #DCB99E",
"V. c #C4AFA6",
"C. c #C1B0A6",
"Z. c #C6B2A9",
"A. c #CBB8AD",
"S. c #CDBCB3",
"D. c #D2BFB5",
"F. c #E1BEA2",
"G. c #D4C2B7",
"H. c #D6C4B9",
"J. c #D9C7BE",
"K. c #E5C1A4",
"L. c #EAC5A7",
"P. c #EECAAA",
"I. c #F4CEAF",
"U. c #DDCEC2",
"Y. c #E1CEC2",
/* pixels */
"                                                                                                    ",
"                                                                                                    ",
"                                                                                                    ",
"                                                                                                    ",
"                                                                                                    ",
"                                                                                                    ",
"                                                                                                    ",
"                                                                                                    ",
"                                                                                                    ",
"                                                                                                    ",
"                                                                                                    ",
"                                                                                                    ",
"                                      U.$.                                                          ",
"                                      u.Q e                                                         ",
"                                     .@.X.n R                                                       ",
"                              b.m.B.N.w.3.f.x.z.a.{                                                 ",
"                        j.v.L.I.P.L.b.3.Z.J.f.O.7.3.=.+.                                            ",
"                      l.m.K.K.F.B.e.3.a.h.1.[ 5.q.6.+.0.2.                                          ",
"                    s.v.F.B.v.q.q.:.f.Y.j.[ 5.2.2.6.` S o.O.                                        ",
"                  H.n.I.F.v.4.3.:.;.H.H.8.3.4.3.2.Z p p p I `                                       ",
"                S.x.4.m.w.3.0.0.3.>.i.u.0.6.;.3.C p n B c ; n                                       ",
"                r.9.M.3.5.5.5.5.4.,.E >.4.3.3./ 4 B N 6 Y %.h I                                     ",
"                c.d.M.4.5.5.4.4.;.W E #.3.3.2.b f B 8 | H.k.V.A.D.G.D.H.J.H.    H.S.G W             ",
"              D.z.] 3.3.3.2.3.2.@.g.W O.;.2.' 9 N N < J.c.<.z.j.z.x.c.C.Z.Z.c.Z.J.z . + x           ",
"              S.s.3.7.3.2.2.=.' *.k.E O.O.+._ a N c F x.,.y.y.y.y.1.1.y.y.y...x.z.X w q t           ",
"              &.@.3.-.2.2.=.=.2.X.s T 2.+.=.` f n a z F K ! ! ! ! ! ! ! ! ! E K J = = q w z         ",
"              q ( 3.2.2.2.=.+.+.R W Q +.O.O.` a N a g z z x z z l l x x x l j x z = q = w l         ",
"              l R ;.#.=.+.=.+.+.R l G o.+.=.` 9 m a y g s s s s s s s t t - - s j w q - t           ",
"              s d ) =.+.+.+.O.+.R r.Q ' ' / Z 4 C B % y - = q = = = = - q q w w t s = = i           ",
"              u.! 0 ^ ` ' O.O.+.} i.H I A Z A 1 A p O - - w q q q w - w = - -   % t s s             ",
"              ! H v v v V A U / U 3 j N Z V C c C & $ $ - t t -                                     ",
"                j N C V V C Z V Z x x h Z Z V C B O $ $ $ $ - 3                                     ",
"                z x Z Z Z Z Z Z Z f q - Z C 7 C 7 O $ $ $ $ r                                       ",
"                  w d B Z Z Z Z A n % - 3 $ p ~ f $ $ $ & 3 1                                       ",
"                    % a n n B V B a 3 % - M C B ~ C * $ r & $ & $ - 3                               ",
"                    h % @ & 1 1 , , , % n N , 2 2 C M & $ $ 3 $ $   & 3                             ",
"            L P P D P D Z D B B B B M a c o > 9 1 p B 4 $ - - & - $   p                             ",
"          M P B D M M C L D B D C B M N > K c.g 2 1 a & r - - 3 3 $ $ 5 -                           ",
"            m m c f f a a f m m a m c c : K ,.t 3 5 a $ & & - - & $ & 5 &                           ",
"                  p 3 $ -           @ 9 f : : 5 3 4 a #   & &   $ $   p                             ",
"                    y # ,               c p 4 3 1 a 5       - $ % $ 7 1                             ",
"                    p 3 $                 a a a c a #         & 4 9 1                               ",
"                                            M a y                                                   ",
"                                                                                                    ",
"                                                                                                    ",
"                                                                                                    ",
"                                                                                                    ",
"                                                                                                    ",
"                                                                                                    ",
"                                                                                                    "
};
