/* XPM */
static char *draw_chest[] = {
/* columns rows colors chars-per-pixel */
"50 50 225 2 ",
"   c #FFFF01",
".  c #000000",
"X  c #1E0004",
"o  c #2A0004",
"O  c #3A0304",
"+  c #3E1501",
"@  c #3B0013",
"#  c #2D2624",
"$  c #480605",
"%  c #550303",
"&  c #431706",
"*  c #501510",
"=  c #4C2901",
"-  c #4C260C",
";  c #522902",
":  c #562606",
">  c #553303",
",  c #593603",
"<  c #5B3905",
"1  c #5B350B",
"2  c #5D3A0A",
"3  c #56320E",
"4  c #5C3512",
"5  c #5E3A13",
"6  c #563718",
"7  c #4B281C",
"8  c #6A2B02",
"9  c #623C0E",
"0  c #663604",
"q  c #733C00",
"w  c #7A3B00",
"e  c #613C14",
"r  c #5A3C21",
"t  c #40362D",
"y  c #712B3A",
"u  c #1F642E",
"i  c #4F4309",
"p  c #694309",
"a  c #754300",
"s  c #794908",
"d  c #684717",
"f  c #7C4D11",
"g  c #734A14",
"h  c #725714",
"j  c #796400",
"k  c #786519",
"l  c #5D4123",
"z  c #684B24",
"x  c #745425",
"c  c #7D5A24",
"v  c #7A5D2D",
"b  c #795631",
"n  c #6D5129",
"m  c #7A6724",
"M  c #716632",
"N  c #456E31",
"B  c #000758",
"V  c #7D2D45",
"C  c #756C53",
"Z  c #834F04",
"A  c #855106",
"S  c #865309",
"D  c #8A5304",
"F  c #815112",
"G  c #8C7808",
"H  c #937F06",
"J  c #A77F1E",
"K  c #805B33",
"L  c #83642D",
"P  c #89662D",
"I  c #866C2A",
"U  c #926C2C",
"Y  c #8F7B2A",
"T  c #8A7228",
"R  c #91792B",
"E  c #8B6933",
"W  c #906F34",
"Q  c #957334",
"!  c #997635",
"~  c #9B7936",
"^  c #987E36",
"/  c #857637",
"(  c #A07A25",
")  c #A17C3A",
"_  c #8E4C47",
"`  c #946341",
"'  c #887746",
"]  c #B07051",
"[  c #837C68",
"{  c #BA6460",
"}  c #A75A55",
"|  c #E66A7E",
" . c #CF6D6C",
".. c #009048",
"X. c #00B359",
"o. c #799D45",
"O. c #968418",
"+. c #95840B",
"@. c #A28900",
"#. c #AA9207",
"$. c #A89916",
"%. c #B69D1E",
"&. c #B19112",
"*. c #BDA500",
"=. c #AEA217",
"-. c #B8AD18",
";. c #A6A008",
":. c #9A842D",
">. c #988529",
",. c #9A8536",
"<. c #A38D2F",
"1. c #AA942D",
"2. c #B19A2B",
"3. c #A58E32",
"4. c #AA853C",
"5. c #A78739",
"6. c #AC9433",
"7. c #A79434",
"8. c #B39A37",
"9. c #B28B32",
"0. c #BCA629",
"q. c #BAA334",
"w. c #BCA43B",
"e. c #B8A236",
"r. c #C3A902",
"t. c #D3B900",
"y. c #C6BA19",
"u. c #D6BB16",
"i. c #CCB103",
"p. c #C79B3A",
"a. c #C2AB28",
"s. c #CEB92A",
"d. c #D6BB28",
"f. c #C5AC3B",
"g. c #C4AB38",
"h. c #DBA93B",
"j. c #CBB13C",
"k. c #CBB538",
"l. c #D5BB38",
"z. c #E3AF3C",
"x. c #E8B33A",
"c. c #CDC318",
"v. c #D4C61C",
"b. c #DFD518",
"n. c #D7CD0D",
"m. c #E1C505",
"M. c #E4D81D",
"N. c #E5C812",
"B. c #F6EA1B",
"V. c #FEF21D",
"C. c #FFFC1F",
"Z. c #DBC428",
"A. c #DBC236",
"S. c #DFD021",
"D. c #E6D921",
"F. c #EBCE38",
"G. c #E8CB2D",
"H. c #F8EB21",
"J. c #FFF422",
"K. c #FFFB22",
"L. c #96864A",
"P. c #A68948",
"I. c #B48D41",
"U. c #B98F40",
"Y. c #A89547",
"T. c #BC9544",
"R. c #B99144",
"E. c #A89659",
"W. c #B8A257",
"Q. c #BEB245",
"!. c #968B74",
"~. c #A79465",
"^. c #A18F6C",
"/. c #B8A66B",
"(. c #C39A46",
"). c #C59C49",
"_. c #C59A46",
"`. c #CCA14A",
"'. c #C2AA42",
"]. c #DAAB4E",
"[. c #D4A64A",
"{. c #CBB342",
"}. c #CFB74E",
"|. c #D4BA42",
" X c #D9BD43",
".X c #D3BA44",
"XX c #DDAE50",
"oX c #CDB157",
"OX c #E7B656",
"+X c #EBB84C",
"@X c #CEB16C",
"#X c #DCC243",
"$X c #DCC34A",
"%X c #DFC854",
"&X c #E2C545",
"*X c #E4C947",
"=X c #F2D54B",
"-X c #F3CB51",
";X c #FFE250",
":X c #FFE34F",
">X c #9C9589",
",X c #9A9897",
"<X c #908C85",
"1X c #AD9D84",
"2X c #AAA186",
"3X c #B3A488",
"4X c #A7A399",
"5X c #B4AB99",
"6X c #9A9DA8",
"7X c #AAA8A8",
"8X c #B2ACA6",
"9X c #A8ACB5",
"0X c #B6B6B8",
"qX c #B0B3B3",
"wX c #FD8A87",
"eX c #C9BB85",
"rX c #C6B58C",
"tX c #C4C1B3",
"yX c #B9BDC3",
"uX c #ADB3C0",
"iX c #BCC2CC",
"pX c #C8C8C7",
"aX c #C9CCD5",
"sX c #D3D3D4",
"dX c #D1CEC6",
/* pixels */
"                                                                                                    ",
"                                                                                                    ",
"                                                                                                    ",
"                                                                                                    ",
"                                                                                                    ",
"                                                                                                    ",
"                                                                  @XW.                              ",
"                                                  4 3 1 1 1 4 , 5 P.P.1 1 e 1 1 4                   ",
"                                              - f F F f f F f F f 8 0 f F F F F F F F p ! x         ",
"                                              p f f 1 , 1 , > 1 < 9 2 2 2 , 1 , 2 9 9 = I.4.        ",
"                                            5 f f 9 = > > > > > > > > > > > > > > > = d ).4.x       ",
"                                            f S g > < > p 2 2 > , > , , , , > , , < & Q `.W 4.c     ",
"                                          e 8 % : 3 9 ; X X O , , > > , > > > > , < 2 I.T.g U !     ",
"                                        . 0 6. Xm . . i e.q.T = > p , , , < < < < & L ).5.q x ~     ",
"                                        k 3.=X&X>.y _ ` l.=X:XR + o > 2 < > > > < = 5._.P q F )     ",
"                                      Y &X Xm 3.<. .wXwX| ] 2.f.=Xg.= o = p < < ; d _.I.f a Q )     ",
"                                    9.:Xj.6.j.&Xj.y } { { ` &Xf.3.|.6.{.k o > < + ! `.! q 0 4.L     ",
"                                6.#Xo.Q.j.l.=X^ 3.'.V _ _ L &X.Xg.j.:.w.>.I d = d T.T.g 0 5.~       ",
"                            6.f.$X7...X...8.#X3.&Xj.! ` L =X X8. X:X{.3.l.:X:.x 4.`.4.~ I.Q         ",
"                        b x {.&X#X7.u N N f.w.6.8.R l.&X|.8.6.|.7.#X*Xf.w.^ z P L ~ x P x           ",
"                      -.l.:.P n M v M M P '.6.'.6.q.6.g.6.l.*X8.m <.7.d 7 P 5.`.!                   ",
"                      c.C.B.D.D.v.0.0.>.v L E b b W Q 5.T I 8.8.z r z ! R.(.).`.!                   ",
"                      =.V.H.J.V.K.K.b.e.f.O.D.S.s.0.1.^ W E n r L 5.T.T.).).I.W 6                   ",
"                        T O.$.-.c.S.;.k.l.n.a.J.C.V.H.B.D.S.0.! T.(.(.(.I.I 4 E                     ",
"                        ).] $ 8 q % c.=.@ c.>.Z.V.J.J.J.J.J.B.8.).).I.P 1 : p T.                    ",
"                        ].`.O g g f =.O.= = h s H $.y.b.H.H.V.8.I.U 2 , a D f R.                    ",
"                        `.].o d X y.J.y.b.c.h * * % % 0 j O.$.m 6 = a S S Z g I.                    ",
"                        p.OXO d o v.J.. b.K.k * d 5 5 e : * R.I.U s S A A A s I.                    ",
"                        T.OX- 5 @ $.J.=.V.y.$ e 4 4 4 4 4 6 OX].~ q S A A Z g I.x                   ",
"                        4.-X6 4 6 * =.b.y.p 9 4 4 4 4 4 e - XX].! a A A A A a I.c                   ",
"                          -XE o e e $ $ % 9 e 4 4 4 4 4 5 & ].OX~ a D Z S s c ).x                   ",
"                        n OXOX` r & & - 1 4 e e 4 4 4 4 e $ [.XX) q S Z Z P (.J                     ",
"                    7.F.Z.9.h.z.h.p._.) b 6 $ $ * 3 4 e d O `.XX^ Z D f P.p.( ,X      ,.A.i.n       ",
"                      ^./.4X0X4X1X@X[.z.x.z.p.4.E z 7 O $ . _.].5.0 U R.&.' pXsX      2X,XqXyX      ",
"                        pXaX  pXyXiX0XqX5XrX@XOX+X+Xh.p.4.W OX[.I.I.p.R >XiXaX    E.$XF.@X          ",
"                q.G.m.+.    r.N.&X/.      pX9X9X4X3X1X@XOX+Xx.p._.J ^.7XpXeXv.q.    C ' L.          ",
"                  <X!.dX    L.Y.q.L.                rX4X6X9X8X~.] ,XpX    @.{..X>.  s.#Xw.t         ",
"                %XeX8X        ,X8.oXoX      .X$X  &.s.d.g.    iX9X      %X3.z w.{.{.C L.0.0.*.      ",
"              I g.a.#.j       3.*Xg.0.7X  +.#XZ.d.m ,.Q.#Xa..   l.Z.7.8.#X=X'.' e.#X}.O.W.W.@XiX    ",
"            #X XM #.0.m.~.    w.{.w.C yX    C 1X1X!.0.m I j.*X{.Q.$X.XB # q.{.8.T L.Y.5XiXqXiX      ",
"          Y &Xl.*.>X8X4X0XtX  / m *.u.*.        7XT.l.{.>.Y Y h 3.q.C rX  M O.*.t.Y.9XsX            ",
"              ,X7XpX      0.F.u.O.2X2X5XdXoXj     g..Xf.i   }.Y.T *.+.r.Z.r.^.5X2XyXsX              ",
"                            !.2X8XaX  9X!.%.q.Q.  ,.7.w.3.'.s.t.,.5X4X,X,X4XiX                      ",
"                                  8.m.m.+.Y.W.A.$X{.G =.k.q.,X4XqXsX                                ",
"                                  k ~././.yX6X>.Q.s.~.9X7XqXsX                                      ",
"                                      yXaX      6X9XyX                                              ",
"                                                                                                    ",
"                                                                                                    ",
"                                                                                                    ",
"                                                                                                    "
};
