/* XPM */
static char *draw_coin_xpm[] = {
/* columns rows colors chars-per-pixel */
"20 20 175 2 ",
"   c #FFFF01",
".  c #C73D00",
"X  c #CD5100",
"o  c #CA5829",
"O  c #D57534",
"+  c #D07147",
"@  c #DF7E42",
"#  c #D27D51",
"$  c #EB8600",
"%  c #EC8F00",
"&  c #EB9500",
"*  c #EF9B03",
"=  c #EB920C",
"-  c #F49200",
";  c #F29B0E",
":  c #F19A14",
">  c #EFA300",
",  c #F7A200",
"<  c #FCA400",
"1  c #FCA900",
"2  c #F8A70F",
"3  c #F9AE0B",
"4  c #EFB800",
"5  c #F5B300",
"6  c #FEB500",
"7  c #F6B800",
"8  c #FDBC01",
"9  c #FEB40C",
"0  c #FFBC0C",
"q  c #F7A914",
"w  c #F8A615",
"e  c #FCB414",
"r  c #F6BD1B",
"t  c #FBBE1B",
"y  c #EA9A26",
"u  c #EF9A3C",
"i  c #F6A221",
"p  c #F2A62E",
"a  c #F5B827",
"s  c #FDB22A",
"d  c #FDBA23",
"f  c #F5AF36",
"g  c #FCB835",
"h  c #F5BD3F",
"j  c #FDC301",
"k  c #FDCC00",
"l  c #FEC40D",
"z  c #FDCE0A",
"x  c #FED400",
"c  c #FDDB02",
"v  c #FFD50F",
"b  c #FCDC09",
"n  c #FFC117",
"m  c #FDC41B",
"M  c #FBCD1A",
"N  c #FED61A",
"B  c #FEDF18",
"V  c #FFE401",
"C  c #FEEB01",
"Z  c #FFE20A",
"A  c #FEEC0E",
"S  c #FEF300",
"D  c #FFFB00",
"F  c #FBE211",
"G  c #FDEB14",
"H  c #FDE31C",
"J  c #FCC021",
"K  c #F9C820",
"L  c #FAC12B",
"P  c #FAD325",
"I  c #FCDC22",
"U  c #FCD32B",
"Y  c #F2C431",
"T  c #FEC436",
"R  c #FDDB32",
"E  c #FEE527",
"W  c #FEEC27",
"Q  c #FEE12E",
"!  c #FFEC2B",
"~  c #FEF225",
"^  c #FFE736",
"/  c #FEE831",
"(  c #FEE23D",
")  c #FFEB3D",
"_  c #FFF739",
"`  c #FEF938",
"'  c #DA804C",
"]  c #D98150",
"[  c #D48153",
"{  c #EA9C49",
"}  c #EB964C",
"|  c #EBAE4C",
" . c #F2A746",
".. c #F1A44A",
"X. c #F2B841",
"o. c #F5BD4D",
"O. c #EDAB50",
"+. c #E4A25D",
"@. c #F4AE5D",
"#. c #EAB75A",
"$. c #E8BF59",
"%. c #FCB450",
"&. c #FCBB55",
"*. c #F2BF5C",
"=. c #F6BF6F",
"-. c #F2B36D",
";. c #ECB875",
":. c #ECC246",
">. c #F7C642",
",. c #F3CE41",
"<. c #FFCB47",
"1. c #F5CA4F",
"2. c #FADB4A",
"3. c #FFCE5C",
"4. c #FADE55",
"5. c #FDD35B",
"6. c #F3DA58",
"7. c #FADF58",
"8. c #FFE343",
"9. c #FDED46",
"0. c #FEE34A",
"q. c #FEEB49",
"w. c #FBF040",
"e. c #FFF44C",
"r. c #FFEF54",
"t. c #FBE759",
"y. c #FEED5B",
"u. c #F4E45B",
"i. c #FFF254",
"p. c #FFF35A",
"a. c #FFF95E",
"s. c #FFC763",
"d. c #FACC6D",
"f. c #FED563",
"g. c #F1DF61",
"h. c #F8D76D",
"j. c #F8D864",
"k. c #F1C873",
"l. c #F2D874",
"z. c #F7E162",
"x. c #FEE467",
"c. c #FBEC65",
"v. c #FFE96B",
"b. c #FEF36D",
"n. c #FEFB6B",
"m. c #FEF273",
"M. c #FFFD75",
"N. c #FFFF7A",
"B. c #FCD882",
"V. c #F6DF8E",
"C. c #FCEF81",
"Z. c #FFF68B",
"A. c #FBF485",
"S. c #FDED94",
"D. c #FEF690",
"F. c #FFFB95",
"G. c #FFF59F",
"H. c #FFFD99",
"J. c #FCDBBF",
"K. c #FEEFA2",
"L. c #FCEEAE",
"P. c #FFF5A7",
"I. c #FFF9A4",
"U. c #FFFFB6",
"Y. c #FEF1BA",
"T. c #FFFDBC",
"R. c #FBEBC4",
"E. c #FFF9C1",
"W. c #FFFDC8",
"Q. c #FBEFD7",
"!. c #FAEEDA",
"~. c #FBF1E5",
"^. c #FFF1ED",
"/. c #FFFFEA",
"(. c #FCF2F0",
/* pixels */
"                !.!.!.~.(.^.            ",
"          Y.R.E.I.Z.A.F.U./.J.          ",
"        Y.T.C.n.M.H.W.S.6.7 % 6 s       ",
"      L.P.n.N.H.U.Y.B.>.y $ = & n %.    ",
"    K.G.a.M.Z.T.L.M k k x h : & > <.    ",
"    I.i.n.b.F.V.+.k j.1.c 2. ., * t @.  ",
"  S.v.p.y.b.0.r 4 c k.O.b 2.O.1 w 5 s.@ ",
"  Z.9.i.i.8.k c N I 1.; X.o.p 6 2 5 3.' ",
"m.m.^ 9.q.a K I x I P 5 < 1 6 8 3 5 5.# ",
"m.y./ ) Y - q U c V V H T 6 0 8 9 5 5.# ",
"c.0.E R k o.i x H 6.Z C t.g 8 j 3 j f.+ ",
"y.8.B M V j.f V q.;.c C t.&.j l q v d.o ",
"e.8.k l V R U C g...V A c.o.k 8 e ( -.. ",
"` e.8 0 A V G A u.P G S l.r x w x j.'   ",
"  ) e 8 N W G A S S D c.#.x 9 t ^ =.X   ",
"  m L 8 l / S ~ w.w.g.1.k 6 d V h.O     ",
"    v 9 j R _ u.:.,.Y j 9 m V x.}       ",
"    z V j 5 J L 8 8 6 0 x ! v.{         ",
"        U Z x k j x c ! i.f.u           ",
"            8.8.0.0.t.5.&.              "
};
