/* XPM */
static char *draw_fireball_xpm[] = {
/* columns rows colors chars-per-pixel */
"25 25 227 2 ",
"   c #FFFF01",
".  c #00003F",
"X  c #0B004C",
"o  c #1A124C",
"O  c #0A0055",
"+  c #14254E",
"@  c #1E285E",
"#  c #000068",
"$  c #00006B",
"%  c #09006A",
"&  c #0C0069",
"*  c #020072",
"=  c #000077",
"-  c #070079",
";  c #002E67",
":  c #163261",
">  c #1F3765",
",  c #1A3965",
"<  c #153568",
"1  c #17356F",
"2  c #18366C",
"3  c #1C3B6D",
"4  c #1C3C74",
"5  c #173E7F",
"6  c #1B3E7F",
"7  c #213E66",
"8  c #07467D",
"9  c #1D4279",
"0  c #234A7E",
"q  c #234D7D",
"w  c #060082",
"e  c #000085",
"r  c #00008B",
"t  c #0B168E",
"y  c #0F2C8C",
"u  c #022CA1",
"i  c #002FA2",
"p  c #003EBB",
"a  c #1F4981",
"s  c #184588",
"d  c #104F91",
"f  c #174F97",
"g  c #1E4F92",
"h  c #12459A",
"j  c #185B91",
"k  c #195198",
"l  c #1D589F",
"z  c #234D81",
"x  c #204D88",
"c  c #274F88",
"v  c #21508B",
"b  c #22508B",
"n  c #2D558D",
"m  c #2C588D",
"M  c #245797",
"N  c #2A5790",
"B  c #2E5194",
"V  c #275898",
"C  c #2D5F9E",
"Z  c #36659F",
"A  c #3B6B9F",
"S  c #004DA4",
"D  c #0F4DAB",
"F  c #0E4EAB",
"G  c #0B5CAE",
"H  c #004BB6",
"J  c #0054BB",
"K  c #1756B3",
"L  c #1956B4",
"P  c #2D5AAD",
"I  c #1C63AE",
"U  c #1D69AF",
"Y  c #0566B1",
"T  c #0C68B3",
"R  c #0F60BA",
"E  c #196BB1",
"W  c #1465BC",
"Q  c #1E60BC",
"!  c #1C69BB",
"~  c #2C62AF",
"^  c #2569AA",
"/  c #236AAC",
"(  c #2D6CAE",
")  c #336AA8",
"_  c #3D6EAA",
"`  c #216EBA",
"'  c #2972B4",
"]  c #2079BE",
"[  c #3A77B3",
"{  c #3373B9",
"}  c #4D7DB1",
"|  c #1D51C1",
" . c #006DC2",
".. c #0C6BC0",
"X. c #156CC5",
"o. c #1C68CD",
"O. c #1871C1",
"+. c #1A77C9",
"@. c #117BC9",
"#. c #137CC8",
"$. c #0076DE",
"%. c #007ADB",
"&. c #177BD1",
"*. c #1B7FD6",
"=. c #197AD8",
"-. c #237BCF",
";. c #2578CE",
":. c #3A8AB6",
">. c #008DC2",
",. c #1881D2",
"<. c #1A85DC",
"1. c #0092DD",
"2. c #0095DE",
"3. c #1E98DF",
"4. c #2687C7",
"5. c #228EC3",
"6. c #2F89C3",
"7. c #2A82C9",
"8. c #2182DB",
"9. c #3584D0",
"0. c #3B8DD6",
"q. c #2091D3",
"w. c #2996DA",
"e. c #389FD3",
"r. c #3399D8",
"t. c #35A1D8",
"y. c #39A0DC",
"u. c #3EAADB",
"i. c #1881E2",
"p. c #1D8BE3",
"a. c #0496E7",
"s. c #1E95E5",
"d. c #1898ED",
"f. c #268CE6",
"g. c #2296E7",
"h. c #2C96E1",
"j. c #289BE5",
"k. c #339BE2",
"l. c #3998E3",
"z. c #219AF0",
"x. c #1AA8E7",
"c. c #1EA4EB",
"v. c #0EB0EC",
"b. c #1EB4EB",
"n. c #1DA6F3",
"m. c #1FAAF0",
"M. c #17B2FA",
"N. c #2DA5E2",
"B. c #29A5E5",
"V. c #2FA9E0",
"C. c #2AAEEC",
"Z. c #35A6E2",
"A. c #39A2E1",
"S. c #3FAFE3",
"D. c #30A1E8",
"F. c #36A2EA",
"G. c #2EB6EF",
"H. c #37BAEC",
"J. c #32AEF5",
"K. c #2BB0F0",
"L. c #2EB6F6",
"P. c #32BBF0",
"I. c #35BBF4",
"U. c #3DBEF5",
"Y. c #4890C7",
"T. c #439ED3",
"R. c #4D9DD0",
"E. c #4FB0D9",
"W. c #45A7E7",
"Q. c #40B7E5",
"!. c #4ABEE4",
"~. c #45B2EF",
"^. c #41BAEF",
"/. c #55B5EC",
"(. c #55B7EF",
"). c #41A0F0",
"_. c #52BFF1",
"`. c #53BCF2",
"'. c #55BAFC",
"]. c #37C0EF",
"[. c #39C2F3",
"{. c #3CCBFA",
"}. c #3ED0F5",
"|. c #43C8ED",
" X c #5BC6EA",
".X c #5BCAE8",
"XX c #51D4E9",
"oX c #4CC5F4",
"OX c #4ECBF2",
"+X c #4BCBF5",
"@X c #42CAFF",
"#X c #51CAF2",
"$X c #50CDF6",
"%X c #51C4FF",
"&X c #52CBFB",
"*X c #5ECBFF",
"=X c #55D6F7",
"-X c #59D4F4",
";X c #57D2F8",
":X c #51D7FA",
">X c #50DEFB",
",X c #6AD0E9",
"<X c #73D6E9",
"1X c #68C6F3",
"2X c #60CEF3",
"3X c #65D6FC",
"4X c #6AD0FB",
"5X c #60DAF9",
"6X c #7CD9FC",
"7X c #7ADEFF",
"8X c #53F0FF",
"9X c #67E1FA",
"0X c #60EAFF",
"qX c #6DEAFB",
"wX c #75E5FC",
"eX c #70EAFE",
"rX c #78EDFF",
"tX c #75F7FC",
"yX c #7DF6FB",
"uX c #81DAED",
"iX c #81E6F9",
"pX c #84EEFB",
"aX c #8AEEFA",
"sX c #81F2FB",
"dX c #8EF4FE",
"fX c #A8FCFE",
"gX c #A9FFFF",
/* pixels */
"                                                  ",
"                                                  ",
"                                                  ",
"                      R Q                         ",
"                    D g.D.p.T                     ",
"                  d ;.OXwXI.Y                     ",
"                ; E k.-XfX5X .L                   ",
"                8 @._.:XaXdXx.i.&.                ",
"                i q.;X5XsXsXpX/.C.                ",
"              ..<.!.0XqXtX>XpX2XU.2.              ",
"              4XeX=X+XL.{.J.oX$X#X3.L             ",
"            b.fX_.a.c.m.n.d.$.l.~.^.j.            ",
"            .X7X%.N.[.P.K.s.*.X.p ).@X            ",
"             X0.#.H.}.].B.w.+.! h | &X5.j         ",
"          O.z.D ] V.|.Q.r.7.` I k r W.:.6.        ",
"          ,.=.y U 4.e.T.Y.{ ( l s = 9.k.Q.        ",
"          t.-.- f / ' [ } _ ) M a % 1.8X          ",
"          u.8.w 5 g V Z B A N a , r 6X<X          ",
"          ^ f.t 1 6 x c n n z 4 o S rXR.          ",
"            h.J O 1 z 0 0 q < : & o.v.            ",
"              %Xu X + , 9 @ 3 . ~ *X)             ",
"                Z.W = $ O G P H /.                ",
"                  A.'.P.1X3XM.y.                  ",
"                    E.XX<X,X>.                    ",
"                                                  "
};
