/* XPM */
static char *draw_heart_xpm[] = {
/* columns rows colors chars-per-pixel */
"20 20 102 2 ",
"   c #FFFF01",
".  c #000000",
"X  c #000202",
"o  c #330000",
"O  c #340000",
"+  c #3E0000",
"@  c #470000",
"#  c #4B0202",
"$  c #540000",
"%  c #580000",
"&  c #5E0303",
"*  c #6B0000",
"=  c #6C0000",
"-  c #6E0000",
";  c #6F0C0C",
":  c #760000",
">  c #800000",
",  c #810000",
"<  c #8C0000",
"1  c #980000",
"2  c #9D0000",
"3  c #9E0000",
"4  c #B80000",
"5  c #B90000",
"6  c #BF0000",
"7  c #B21313",
"8  c #802424",
"9  c #992929",
"0  c #9A2F2F",
"q  c #8F3232",
"w  c #863939",
"e  c #983333",
"r  c #C00000",
"t  c #C30000",
"y  c #CD0000",
"u  c #D80000",
"i  c #DC0000",
"p  c #DF0000",
"a  c #E00000",
"s  c #E20000",
"d  c #E30000",
"f  c #E40000",
"g  c #E50000",
"h  c #E40101",
"j  c #E50101",
"k  c #E60000",
"l  c #E70000",
"z  c #E60101",
"x  c #E50404",
"c  c #E60606",
"v  c #E80000",
"b  c #E90000",
"n  c #ED0000",
"m  c #EE0000",
"M  c #EF0000",
"N  c #EE0303",
"B  c #E60C0C",
"V  c #F00000",
"C  c #F10000",
"Z  c #F60000",
"A  c #F20505",
"S  c #E61111",
"D  c #E61313",
"F  c #E61515",
"G  c #E61818",
"H  c #E61A1A",
"J  c #F31B1B",
"K  c #EB2A2A",
"L  c #A54A4A",
"P  c #B75C5C",
"I  c #BD5959",
"U  c #BB5D5D",
"Y  c #C05656",
"T  c #CD5C5C",
"R  c #E44D4D",
"E  c #EC4949",
"W  c #E55454",
"Q  c #E55757",
"!  c #F05858",
"~  c #C36363",
"^  c #DD6868",
"/  c #DA7676",
"(  c #E36262",
")  c #E36969",
"_  c #ED6C6C",
"`  c #E47B7B",
"'  c #EA8686",
"]  c #E78888",
"[  c #EA8A8A",
"{  c #ED8D8D",
"}  c #F08888",
"|  c #F08A8A",
" . c #EE9797",
".. c #E49C9C",
"X. c #E99E9E",
"o. c #E99F9F",
"O. c #EA9E9E",
"+. c #F09292",
"@. c #F19B9B",
"#. c #F09D9D",
"$. c #F79C9C",
"%. c #F0A2A2",
/* pixels */
"                                        ",
"                                        ",
"      O 0 Y U w       + 3 r 5 ,         ",
"    $ ^ +.#.} ! r X & d V V V M 5       ",
"    T $...) j j A 1 t Z d j d j V <     ",
"  * ' O.` j v j j j v j j j j j M y     ",
"  8 { O.Q j F j j v j j v j j j M u X   ",
"  ; [ O.R j B j j j v j j j j j M y     ",
"  X / %.( v D j v j j j v v j j M 3     ",
"    q @.[ j B j v j v j j j d V d o     ",
"      I @.W j H j v j j j d M v -       ",
"      X ~ [ F j S j j v j M j :         ",
"        X U _ j j x j d M j -           ",
"            L E v x j M p $             ",
"              e K j M i @               ",
"                9 J p #                 ",
"                  7 ,                   ",
"                  X                     ",
"                                        ",
"                                        "
};
