/* XPM */
static char *draw_mage_tower[] = {
/* columns rows colors chars-per-pixel */
"50 50 172 2 ",
"   c #FFFF01",
".  c #7F3E00",
"X  c #7F5860",
"o  c #7C5C6B",
"O  c #7A5665",
"+  c #7C5B70",
"@  c #7D647C",
"#  c #845347",
"$  c #80575D",
"%  c #835958",
"&  c #805F73",
"*  c #85626C",
"=  c #88646B",
"-  c #856876",
";  c #846778",
":  c #876A7E",
">  c #87687A",
",  c #C1A435",
"<  c #D9C02C",
"1  c #D1BB5F",
"2  c #CFB96C",
"3  c #D3BD6D",
"4  c #E1CB4E",
"5  c #E5D25D",
"6  c #DDC863",
"7  c #E4CF60",
"8  c #695A8B",
"9  c #7C6A89",
"0  c #6B6497",
"q  c #716694",
"w  c #7F7497",
"e  c #7E749B",
"r  c #706EA7",
"t  c #7377AE",
"y  c #7E7AAA",
"u  c #6F79BB",
"i  c #7175B2",
"p  c #747AB5",
"a  c #7A7EB3",
"s  c #737CBB",
"d  c #836A85",
"f  c #886D80",
"g  c #806B8A",
"h  c #86728B",
"j  c #8C768D",
"k  c #967F8E",
"l  c #927883",
"z  c #806F94",
"x  c #847493",
"c  c #8D7B93",
"v  c #81749A",
"b  c #857B9D",
"n  c #8C7E9B",
"m  c #8A7793",
"M  c #847CA3",
"N  c #8B7EA1",
"B  c #827DAA",
"V  c #887EA8",
"C  c #7D81B6",
"Z  c #7E84B9",
"A  c #7E86C1",
"S  c #8D819D",
"D  c #948495",
"F  c #94849C",
"G  c #968A9C",
"H  c #988A9D",
"J  c #9F939C",
"K  c #9E9193",
"L  c #AB9C9B",
"P  c #B39F9D",
"I  c #BEA887",
"U  c #BAA48D",
"Y  c #AFA397",
"T  c #8C84A5",
"R  c #8482AD",
"E  c #8A85AC",
"W  c #8C88AF",
"Q  c #9284A2",
"!  c #958AA4",
"~  c #9A8CA3",
"^  c #938AAA",
"/  c #9D92A5",
"(  c #9A92AB",
")  c #8485B4",
"_  c #8A87B0",
"`  c #8789B7",
"'  c #8C8AB5",
"]  c #8186BA",
"[  c #8589BC",
"{  c #8B8DBC",
"}  c #918CB2",
"|  c #8D91BE",
" . c #9491B4",
".. c #9994B4",
"X. c #9495BD",
"o. c #9996BA",
"O. c #9F9CBB",
"+. c #A08FA0",
"@. c #A79AA7",
"#. c #A092A9",
"$. c #A79CAF",
"%. c #AA9EAA",
"&. c #A197B2",
"*. c #A49CB4",
"=. c #A29DBB",
"-. c #B7AAAF",
";. c #BDB1A1",
":. c #ABA1B3",
">. c #A5A0BB",
",. c #BBAEB1",
"<. c #B4AAB5",
"1. c #C2AF8E",
"2. c #C6B7A8",
"3. c #C0B5B9",
"4. c #C9BDBA",
"5. c #C7BAB7",
"6. c #EDDC88",
"7. c #858CC2",
"8. c #8B8EC1",
"9. c #8D92C2",
"0. c #9295C2",
"q. c #9599C4",
"w. c #9A9CC5",
"e. c #959BCA",
"r. c #9A9EC9",
"t. c #9994C0",
"y. c #9DA0C7",
"u. c #9EA1CB",
"i. c #99A0D0",
"p. c #A3A2C4",
"a. c #A2A5CB",
"s. c #A6A9CD",
"d. c #ABACCD",
"f. c #ABA7C5",
"g. c #B3ADC1",
"h. c #AEB0CF",
"j. c #B9B6C9",
"k. c #A1A5D3",
"l. c #A5AAD3",
"z. c #ABAED2",
"x. c #A7ACDC",
"c. c #AEB1D3",
"v. c #AEB2D8",
"b. c #B3B4D6",
"n. c #B8B6D4",
"m. c #B3B6DA",
"M. c #B7B8D9",
"N. c #B8BAD8",
"B. c #B9BCE0",
"V. c #C3BDC8",
"C. c #CAC1C4",
"Z. c #CAC4CA",
"A. c #D0C6C4",
"S. c #D1C6C8",
"D. c #D3CACB",
"F. c #D6CBC4",
"G. c #DDD2C7",
"H. c #C0C0DD",
"J. c #D3CED3",
"K. c #D7D0D1",
"L. c #DED7D3",
"P. c #DFD9DA",
"I. c #E5DED9",
"U. c #E3DAD7",
"Y. c #E1DFE5",
"T. c #EFEBEB",
"R. c #F2EEEA",
"E. c #F6F1ED",
"W. c #F7F5F2",
"Q. c #F8F5F3",
"!. c #FFFEFE",
"~. c #FBF9F5",
/* pixels */
"                                                                                                    ",
"                                                                                                    ",
"                                                                                                    ",
"                                                                                                    ",
"                                                                                                    ",
"                                                                                                    ",
"                                                                                                    ",
"                                    d h ..&.                                                        ",
"                                g { { ` q.p.~ =                                                     ",
"                        v { 0.{ 7.8.7.] 9.y...=.~                                                   ",
"                      v ` | 9.` { M E { 0.p.r.h.M.o.h                                               ",
"                    & V 9 x n x d     X...p.s.M.a.e.r.n                                             ",
"                    @ +               ! y.a.q.y.0.{ T }                                             ",
"                  O o                   n e.0.q.9.0.q.8.*                                           ",
"                  o                     ^ k.r.w.q.q.0.] B ;                                         ",
"                  o                   : f.a.a.q.q.q.0.) ] q.                                        ",
"                  %                     ( o...w.q.0.9.| Z { j                                       ",
"                    %                   = ..a.u.X.| | 9.) S                                         ",
"                    #                   >.c.y.>. .| | | { 8.N                                       ",
"                                      >.N.>.O.p.w.9.[ | q.9.E                                       ",
"                                    ~ M.f.f.a.u.q.9.[ { q.| q.n                                     ",
"                                    ~ d.l.s.s.a.9.] ] { w.r.q.c                                     ",
"                                      =.l.d.s.a.q.] Z ` o.o.S F c                                   ",
"                                      . #.f.*.O.u.{ R b n T ' e.}                                   ",
"                                      D O.h.h.s.w.8.R x e.X.| X...                                  ",
"                                    b i.u.c.h.u.w.[ ] b 0.| { 9. .:                                 ",
"                                  E { c X.h.s.y.q.[ Z T | { | | 0.d                                 ",
"                                  x C e D G ! S ' { Z C W 8.9.{ 0.f                                 ",
"                                  ; T ) _  .' | | [ C C E { C C N *                                 ",
"                              x n { { ] { q.9.9.| Z p C ) b 9 R 0._ X                               ",
"                            X X.9.` 0.9.| X.| e.` C t C Z Z ` Z ' } _ :.                            ",
"                      z e B L L q ] 8.q.e.0.9.0.Z u u p C a C C 7.a i  .3.B T Q                     ",
"              N B B { 7.7.i D.E.S.%.^ _ ` ) _ / G S K S 8 8 0 q w ( V.I.<.e.i.k.u.q. .^             ",
"          ^ r.e.7.Z ] Z Z r P.!.!.W.I.A.4.Z.2.< 6 2 7 4 <.4.C.U.R.~.W.G.P h q.p.a.a.l.z.r.          ",
"        ^ x.q.8.Z Z [ 8.0.{ V.!.!.!.!.~.W.!.G., 5.D.4.6 E.!.!.!.!.!.!.R.<.o.p.d.b.l.s.y.z.^         ",
"          u.q.9.] y ) q.0.w.{ $.K.T.~.!.E.I.I 1 U S.Z.2 F.Q.Q.Q.Q.T.Y.j.y.a.l.b.d.s.a.q.=.j         ",
"          F } ' E B 9.q.q.q.w.` M ^ :.Z.J.C.1.5 2 3 6.6 P ,.,.<.g.>.p.z.s.r.s.b.v.b.z.^ ;           ",
"              x ' { M r.r.r.q. .q.a.u.p.=.v.g.;.Y L K ( y.{ w.z.l.*.( a.c.v.M.D F H ..              ",
"                      T } o.p.a.s.v.d.:.@.h.m.m.l.i.e.e.s.r.a.d.c.=.*.h.M.=.l                       ",
"                              D F / +./ $.g.n.H.v.u.u.a.d.d.p.f.*.G H H                             ",
"                                                    n Q +.k                                         ",
"                                                                                                    ",
"                                                                                                    ",
"                                                                                                    ",
"                                                                                                    ",
"                                                                                                    ",
"                                                                                                    ",
"                                                                                                    ",
"                                                                                                    ",
"                                                                                                    "
};
