/* XPM */
static char *draw_medal_xpm[] = {
/* columns rows colors chars-per-pixel */
"20 20 161 2 ",
"   c #FFFF01",
".  c #73767F",
"X  c #BE0000",
"o  c #F00000",
"O  c #F10000",
"+  c #F20000",
"@  c #F30000",
"#  c #F40000",
"$  c #F50019",
"%  c #FE3200",
"&  c #EE3136",
"*  c #DE0068",
"=  c #FD4F4B",
"-  c #FF6D66",
";  c #FF8876",
":  c #FF8479",
">  c #747780",
",  c #777A84",
"<  c #787B84",
"1  c #797C85",
"2  c #7A7D86",
"3  c #0000EC",
"4  c #0000EE",
"5  c #0000EF",
"6  c #0F00EC",
"7  c #0000F0",
"8  c #0000F1",
"9  c #1B00F2",
"0  c #2813EE",
"q  c #392EED",
"w  c #2F25F5",
"e  c #3733F6",
"r  c #7B7AD1",
"t  c #4F4EFF",
"y  c #595AFF",
"u  c #666CFF",
"i  c #8300CC",
"p  c #7E818A",
"a  c #80838C",
"s  c #83868E",
"d  c #888B94",
"f  c #888C95",
"g  c #8A8D94",
"h  c #8B8D95",
"j  c #898C96",
"k  c #8A8D96",
"l  c #8B8E97",
"z  c #8E9199",
"x  c #8E929A",
"c  c #90939C",
"v  c #92959D",
"b  c #94979E",
"n  c #9598A1",
"m  c #9598A2",
"M  c #9699A2",
"N  c #9A9CA4",
"B  c #9A9DA6",
"V  c #9B9EA6",
"C  c #9B9EA7",
"Z  c #A2A4AB",
"A  c #A4A7B0",
"S  c #A6A9B1",
"D  c #A7AAB2",
"F  c #A7AAB3",
"G  c #A8ACB3",
"H  c #A9ACB5",
"J  c #ABAEB7",
"K  c #AEB0B7",
"L  c #A7B0BA",
"P  c #ADB0B8",
"I  c #ADB1B9",
"U  c #ADB0BA",
"Y  c #ADB1BA",
"T  c #AEB1BA",
"R  c #B0B3BA",
"E  c #B0B3BC",
"W  c #B1B4BD",
"Q  c #B3B5BE",
"!  c #FF8F83",
"~  c #FF8A84",
"^  c #FF9C90",
"/  c #C7A298",
"(  c #FFA598",
")  c #FFB5A6",
"_  c #FFBDB0",
"`  c #FFC5AD",
"'  c #FFC7B6",
"]  c #919CC8",
"[  c #A7B8C0",
"{  c #B4B8C0",
"}  c #B7BBC3",
"|  c #B8BBC4",
" . c #B8BCC4",
".. c #BABCC4",
"X. c #BBBEC6",
"o. c #BABEC7",
"O. c #BCBFC7",
"+. c #8189FF",
"@. c #8A94FF",
"#. c #8F9AFF",
"$. c #8BA1FF",
"%. c #AAB6FF",
"&. c #BEC0C7",
"*. c #BDC0C9",
"=. c #BEC1CA",
"-. c #BFC2CB",
";. c #B3C1FF",
":. c #C4C5CA",
">. c #C0C3CC",
",. c #C0C4CC",
"<. c #C2C5CE",
"1. c #C4C6CF",
"2. c #C5C7CF",
"3. c #CACDCB",
"4. c #C5C8D1",
"5. c #C5C9D1",
"6. c #C6C9D2",
"7. c #C7CAD3",
"8. c #C8CBD4",
"9. c #C9CCD4",
"0. c #C8CCD5",
"q. c #C9CCD5",
"w. c #CACDD6",
"e. c #CACDD7",
"r. c #CCCFD6",
"t. c #CCD0D9",
"y. c #FFD5C5",
"u. c #FFE0D0",
"i. c #FFE4D7",
"p. c #FEE9DD",
"a. c #D3D7E0",
"s. c #D4D7E0",
"d. c #D6D7E0",
"f. c #DCDFE7",
"g. c #C4D1FF",
"h. c #C8D5FE",
"j. c #CAD7FF",
"k. c #CEDAFB",
"l. c #DFE0EA",
"z. c #DEE1EA",
"x. c #DFE8FB",
"c. c #E0E3EC",
"v. c #FFEFE3",
"b. c #FAEDE5",
"n. c #F7F1EC",
"m. c #E4E7F0",
"M. c #E6E9F2",
"N. c #E7EBF4",
"B. c #E7EBF6",
"V. c #E4EBFA",
"C. c #E5EDFA",
"Z. c #ECEFF8",
"A. c #EDF1FA",
"S. c #EFF2FC",
"D. c #F5F6F4",
"F. c #F0F3FC",
"G. c #F1F5FD",
"H. c #F3F4FC",
"J. c #F6F9FF",
"K. c #F6FAFF",
"L. c #FAFEFF",
/* pixels */
"      e V.^                 7 h._ +     ",
"      0 @.v.$             7 #.p.#       ",
"        4 h.' +           w C.!         ",
"          y D.-         4 ;.y.+         ",
"          4 %.u.#       u n.=           ",
"            9 x.( #   6 k.) +           ",
"            q +.b.% i $.i.+             ",
"              4 g.` * B.:               ",
"                t H.; ~ &               ",
"                r ] / X &.              ",
"              Y 3.:.L [ } ..            ",
"          K z.Z.K.S.l.d.q.t.-.J         ",
"        6.A.L.K.H.m.a.q.6.1.1.6.R       ",
"      ..l.S.B.M.z.a.q.-.-.O.-...q.      ",
"      q.q.6.*.| W J Z J Y W W Y 1.Q     ",
"      r.0.S B z p 2 p f v m x m {       ",
"        2.1.S B d 2 . > < < s V h       ",
"          O.{ ..Y m d f z z f           ",
"                Y b Z J B               ",
"                                        "
};
