/* XPM */
static char *draw_position_square[] = {
/* columns rows colors chars-per-pixel */
"50 50 94 2 ",
"   c #FFFF01",
".  c #9F1E00",
"X  c #9E1F00",
"o  c #9F1F00",
"O  c #A21D00",
"+  c #A31D00",
"@  c #A01E00",
"#  c #A41D00",
"$  c #A51D00",
"%  c #A61D00",
"&  c #A51E00",
"*  c #AE1B00",
"=  c #AF1B00",
"-  c #A81C00",
";  c #A91C00",
":  c #AA1C00",
">  c #AB1C00",
",  c #AA1D00",
"<  c #AB1D00",
"1  c #AC1C00",
"2  c #AC1D00",
"3  c #AE1C00",
"4  c #B21B00",
"5  c #B41A00",
"6  c #B51A00",
"7  c #B41B00",
"8  c #B51B00",
"9  c #B71A00",
"0  c #B61B00",
"q  c #B71B00",
"w  c #B01C00",
"e  c #B11C00",
"r  c #B41C00",
"t  c #B61C00",
"y  c #B81A00",
"u  c #B81B00",
"i  c #BA1A00",
"p  c #BB1A00",
"a  c #BA1B00",
"s  c #BB1B00",
"d  c #BD1900",
"f  c #BC1A00",
"g  c #BD1B00",
"h  c #BE1A00",
"j  c #BF1A00",
"k  c #BE1B00",
"l  c #BF1B00",
"z  c #B81C00",
"x  c #BC1C00",
"c  c #D80E00",
"v  c #D80F00",
"b  c #C11900",
"n  c #C11B00",
"m  c #C21A00",
"M  c #C31A00",
"N  c #C21B00",
"B  c #C41900",
"V  c #C51900",
"C  c #C41A00",
"Z  c #C51B00",
"A  c #C61A00",
"S  c #C61B00",
"D  c #C81900",
"F  c #C91900",
"G  c #CA1800",
"H  c #CB1800",
"J  c #CA1900",
"K  c #CB1A00",
"L  c #CC1900",
"P  c #CD1900",
"I  c #CE1800",
"U  c #CE1900",
"Y  c #CC1A00",
"T  c #D61100",
"R  c #E70000",
"E  c #E10500",
"W  c #E00600",
"Q  c #E80000",
"!  c #EC0000",
"~  c #ED0000",
"^  c #F10000",
"/  c #F20000",
"(  c #F60000",
")  c #F70000",
"_  c #FA0000",
"`  c #FF0000",
"'  c #FF0302",
"]  c #FF0504",
"[  c #FF0A08",
"{  c #FF0B08",
"}  c #FF0E0B",
"|  c #FF0F0C",
" . c #FF120E",
".. c #FF130F",
/* pixels */
"                                                                                                    ",
"  n n f f f n K K K A A A K I E ( ` _ _ ` _ I f ; $ 9 n K I I K A n A I c c K K K E ( ~ I K K n 9   ",
"  K n f 9 9 f n n f u f f n K I Q Q ~ ] .._ K u $ + = f I ( ~ K f 9 u n K K K A n K c ^ K A A n n   ",
"  ^ K u w 9 9 u u 9 9 w 9 u A K K I R } ..R A 9 $ $ 1 f c ] ] I f 9 9 f n A n f f A K I K n n A I   ",
"  ..I f                                                                                     A I ~   ",
"  ..R K                                                                                     A K T   ",
"  } ( I                                                                                     n n A   ",
"  ( _ (                                                                                     f f x   ",
"  I E (                                                                                     f u 9   ",
"  K I ~                                                                                     n u ;   ",
"  A K T                                                                                     K x =   ",
"  n K (                                                                                     R n 9   ",
"  n I _                                                                                     K f u   ",
"  n K (                                                                                     K A f   ",
"  f A I                                                                                     A n f   ",
"  n A K                                                                                     u z 4   ",
"  K A A                                                                                     = ; ;   ",
"  A A n                                                                                     ; ; ;   ",
"  A A n                                                                                     t 9 9   ",
"  f f 9                                                                                     n A K   ",
"  9 9 9                                                                                     A E ^   ",
"  w 9 w                                                                                     K R ~   ",
"  w 9 9                                                                                     K K K   ",
"  9 9 u                                                                                     f n u   ",
"  9 u u                                                                                     u 9 w   ",
"  4 9 u                                                                                     4 1 ;   ",
"  9 9 u                                                                                     = 1 =   ",
"  f u n                                                                                     ; 1 =   ",
"  I A A                                                                                     ; ; 1   ",
"  ~ I K                                                                                     ; $ ;   ",
"  Q I K                                                                                     + + ;   ",
"  K K A                                                                                     X X ;   ",
"  A A A                                                                                     X + ;   ",
"  A n f                                                                                     + + 1   ",
"  A A n                                                                                     + $ =   ",
"  n A K                                                                                     $ $ ;   ",
"  f A I                                                                                     $ ; ;   ",
"  f A I                                                                                     ; ; ;   ",
"  f A I                                                                                     4 9 4   ",
"  n n K                                                                                     f f f   ",
"  A n K                                                                                     A K K   ",
"  n f A                                                                                     A K K   ",
"  f f f                                                                                     K K A   ",
"  f u 9                                                                                     A K K   ",
"  f 9 w                                                                                     A K I   ",
"  n f 9                                                                                     c c (   ",
"  K A n f 4 w 9 u u n A K I E ^ ` T K n f u 9 4 9 n I ( ` { | ^ K t ; = 4 w w 9 f f f A T ] ] ~ E   ",
"  Q c K f f z u f A A K K K I c c I K K K n u w w u K c ^ ( ( I n 9 1 = 4 4 w 9 u f n A T ] { ^ I   ",
"  ( E I A n f n A K I I K A I I I K K E Q K u ; $ w f K Q ~ c A f 4 = w 4 w 4 9 9 f n A K T R I I   ",
"                                                                                                    "
};
