/* XPM */
static char *draw_select_position_square[] = {
/* columns rows colors chars-per-pixel */
"50 50 103 2 ",
"   c #FFFF01",
".  c #9E7600",
"X  c #9F7600",
"o  c #9F7700",
"O  c #A07800",
"+  c #A27A00",
"@  c #A37B00",
"#  c #A47D00",
"$  c #A57E00",
"%  c #A57F00",
"&  c #A67F00",
"*  c #A88100",
"=  c #A98200",
"-  c #A98300",
";  c #AA8300",
":  c #AA8500",
">  c #AB8500",
",  c #AB8600",
"<  c #AC8600",
"1  c #AC8700",
"2  c #AE8700",
"3  c #AE8800",
"4  c #AF8800",
"5  c #B08A00",
"6  c #B18B00",
"7  c #B28B00",
"8  c #B28C00",
"9  c #B48C00",
"0  c #B48E00",
"q  c #B58E00",
"w  c #B48F00",
"e  c #B58F00",
"r  c #B69000",
"t  c #B79000",
"y  c #B69100",
"u  c #B79100",
"i  c #B89100",
"p  c #B89300",
"a  c #B89400",
"s  c #BA9400",
"d  c #BA9500",
"f  c #BB9500",
"g  c #BB9600",
"h  c #BC9600",
"j  c #BD9600",
"k  c #BC9800",
"l  c #BD9800",
"z  c #BE9900",
"x  c #BE9A00",
"c  c #BF9A00",
"v  c #BF9B00",
"b  c #C19B00",
"n  c #C19D00",
"m  c #C29D00",
"M  c #C29E00",
"N  c #C39E00",
"B  c #C39F00",
"V  c #C49F00",
"C  c #C4A000",
"Z  c #C5A000",
"A  c #C5A200",
"S  c #C6A200",
"D  c #C6A300",
"F  c #C8A300",
"G  c #C8A400",
"H  c #C9A400",
"J  c #C9A500",
"K  c #CAA500",
"L  c #CAA600",
"P  c #CBA600",
"I  c #CBA800",
"U  c #CCA800",
"Y  c #CCA900",
"T  c #CDA900",
"R  c #CEAA00",
"E  c #CEAB00",
"W  c #CEAB08",
"Q  c #D0AB08",
"!  c #D0AC08",
"~  c #D0AC10",
"^  c #D1AC10",
"/  c #D1AC16",
"(  c #D1AE16",
")  c #D2AE16",
"_  c #D2AE1A",
"`  c #D3AF1A",
"'  c #D3AF1E",
"]  c #D3B01E",
"[  c #D4B01E",
"{  c #D4B022",
"}  c #D4B122",
"|  c #D5B122",
" . c #D5B125",
".. c #D5B225",
"X. c #D6B229",
"o. c #D8B429",
"O. c #D8B42B",
"+. c #D9B52E",
"@. c #D9B62E",
"#. c #D9B631",
"$. c #DAB631",
"%. c #DAB733",
"&. c #DBB733",
/* pixels */
"                                                                                                    ",
"  n n v v h n K K F S V S K R ^ } X. . .O. .R h = $ 0 n K R R I S n S R Q ! K K K ^ } ` R K F n t   ",
"  I n h 0 t v n n h f h h n K R ( ( ` O.&. .K f $ @ 4 v R } ` I v t f b K K F V n K Q ' I S V n b   ",
"  ] F p 5 0 t f f 0 0 5 0 f V K K R ( &.&.( S 0 $ $ < v Q O.O.R v 0 0 h n S n v v S K R F n n S R   ",
"  &.R v                                                                                     S R `   ",
"  &.( F                                                                                     V K W   ",
"  &.} R                                                                                     b n S   ",
"  }  .}                                                                                     v v v   ",
"  R ^ }                                                                                     v f 0   ",
"  K R `                                                                                     n f :   ",
"  S K W                                                                                     K v <   ",
"  n K }                                                                                     ( n 0   ",
"  n R  .                                                                                    K v f   ",
"  b F }                                                                                     K V v   ",
"  h S R                                                                                     S n v   ",
"  n V K                                                                                     f f 8   ",
"  F S S                                                                                     < : =   ",
"  S S n                                                                                     = = :   ",
"  S S b                                                                                     0 t 0   ",
"  v v t                                                                                     b S K   ",
"  0 t 0                                                                                     S ^ '   ",
"  5 0 5                                                                                     K ( `   ",
"  5 0 t                                                                                     K K K   ",
"  0 t f                                                                                     v b f   ",
"  0 p f                                                                                     f 0 5   ",
"  8 0 f                                                                                     8 4 :   ",
"  0 t f                                                                                     < < 4   ",
"  v f n                                                                                     : < <   ",
"  R S S                                                                                     = : <   ",
"  ` R K                                                                                     = $ =   ",
"  ( R K                                                                                     @ @ =   ",
"  I I S                                                                                     . . =   ",
"  S S V                                                                                     . @ :   ",
"  V n v                                                                                     @ @ <   ",
"  S S n                                                                                     @ $ <   ",
"  n S K                                                                                     $ $ =   ",
"  v S R                                                                                     $ = =   ",
"  v V R                                                                                     : : :   ",
"  v V R                                                                                     8 t 8   ",
"  n n I                                                                                     h v v   ",
"  S n K                                                                                     V K K   ",
"  b v S                                                                                     S K K   ",
"  v h v                                                                                     K K S   ",
"  v p t                                                                                     S F K   ",
"  v 0 5                                                                                     S K R   ",
"  n v t                                                                                     Q Q }   ",
"  K S b h 8 5 0 f f n V K R ^ ' X.W F b v f t 8 0 n R } X.@.&.] K t : < 8 5 5 t h v v S W O.O.` ^   ",
"  ( Q K v v f f v V S K K K R ! Q R K K K n f 5 5 f K Q ' } } R n t < 4 8 8 5 0 f v b S W O.@.[ R   ",
"  } ^ R S n v n V K R R F S R R R K K ^ ( F f : $ 5 v K ( ` Q S v 8 4 5 5 5 8 0 t v n S K W ( R R   ",
"                                                                                                    "
};
