/* XPM */
static char * draw_k_xpm[] = {
"16 16 2 1",
" 	c #FFFF01",
".	c #FFA500",
"  ...      ...  ",
"  ...      ...  ",
"  ...      ...  ",
"  ...   ...     ",
"  ...   ...     ",
"  ...   ...     ",
"  ......        ",
"  ......        ",
"  ......        ",
"  ......        ",
"  ...   ...     ",
"  ...   ...     ",
"  ...   ...     ",
"  ...      ...  ",
"  ...      ...  ",
"  ...      ...  "};
